<?xml version="1.0" encoding="UTF-8" standalone="no"?>
<!-- Uploaded to: SVG Repo, www.svgrepo.com, Transformed by: SVG Repo Mixer Tools -->

<svg
   width="1155.8496"
   height="1155.8496"
   viewBox="0 0 46.233984 46.233984"
   fill="#000000"
   version="1.1"
   id="svg1"
   sodipodi:docname="icon.svg"
   inkscape:version="1.4.3 (0d15f75042, 2025-12-25)"
   xmlns:inkscape="http://www.inkscape.org/namespaces/inkscape"
   xmlns:sodipodi="http://sodipodi.sourceforge.net/DTD/sodipodi-0.dtd"
   xmlns="http://www.w3.org/2000/svg"
   xmlns:svg="http://www.w3.org/2000/svg">
  <defs
     id="defs1" />
  <sodipodi:namedview
     id="namedview1"
     pagecolor="#ffffff"
     bordercolor="#000000"
     borderopacity="0.25"
     inkscape:showpageshadow="2"
     inkscape:pageopacity="0.0"
     inkscape:pagecheckerboard="0"
     inkscape:deskcolor="#d1d1d1"
     inkscape:zoom="0.22008699"
     inkscape:cx="792.86833"
     inkscape:cy="688.36419"
     inkscape:window-width="1680"
     inkscape:window-height="1050"
     inkscape:window-x="0"
     inkscape:window-y="0"
     inkscape:window-maximized="1"
     inkscape:current-layer="svg1" />
  <rect
     style="fill:#363636;stroke:none;stroke-width:169.849"
     id="rect1"
     width="46.233982"
     height="46.233982"
     x="0"
     y="0"
     ry="9.3259468" />
  <g
     id="SVGRepo_bgCarrier"
     stroke-width="0"
     transform="translate(7.3533502,6.0244355)" />
  <g
     id="SVGRepo_tracerCarrier"
     stroke-linecap="round"
     stroke-linejoin="round"
     transform="translate(7.3533502,6.0244355)" />
  <g
     id="SVGRepo_iconCarrier"
     transform="translate(7.3248425,9.558572)">
    <title
       id="title1">file_type_qml</title>
    <path
       d="M 27.3,2.751004 H 5.886 L 2,6.709004 v 17.042 h 24.114 l 3.886,-3.958 v -17.042 z m -10.4,18.07 -1.828,0.852 -1.572,-2.591 a 3.968,3.968 0 0 1 -1.082,0.106 c -1.845,0 -3.123,-0.5 -3.85,-1.49 a 8.03,8.03 0 0 1 -1.082,-4.7 8.351,8.351 0 0 1 1.1,-4.773 4.379,4.379 0 0 1 3.833,-1.561 c 1.828,0 3.087,0.515 3.833,1.544 a 8.351,8.351 0 0 1 1.1,4.773 10.809,10.809 0 0 1 -0.452,3.44 3.9,3.9 0 0 1 -1.473,2 z m 5.848,-1.67 a 2.735,2.735 0 0 1 -2.168,-0.692 4.192,4.192 0 0 1 -0.58,-2.608 v -4.1 H 19 V 9.7510045 h 1 V 6.751004 h 2 v 3.0000005 h 2 v 1.9999995 h -2 v 3.9 a 3.907,3.907 0 0 0 0.168,1.437 c 0.112,0.231 0.393,0.355 0.86,0.355 l 1.533,-0.053 0.093,1.544 a 12.519,12.519 0 0 1 -1.906,0.217 z m -10.332,-10.786 a 2.4,2.4 0 0 0 -2.289,1.1000005 7.657,7.657 0 0 0 -0.6,3.5129995 7.131,7.131 0 0 0 0.6,3.442 2.44,2.44 0 0 0 2.306,1.031 2.417,2.417 0 0 0 2.289,-1.011 7.343,7.343 0 0 0 0.586,-3.442 7.692,7.692 0 0 0 -0.6,-3.5309995 2.4,2.4 0 0 0 -2.292,-1.1020005 z"
       style="fill:#41cd52"
       id="path1" />
  </g>
</svg>
